<svg width="44" height="44" viewBox="0 0 44 44" fill="none" xmlns="http://www.w3.org/2000/svg">
<g clip-path="url(#clip0_791_24)">
<path d="M21.8941 14.5133C17.7512 14.5133 14.4095 17.8028 14.4095 21.8811C14.4095 25.9593 17.7512 29.2488 21.8941 29.2488C26.0371 29.2488 29.3788 25.9593 29.3788 21.8811C29.3788 17.8028 26.0371 14.5133 21.8941 14.5133ZM21.8941 26.671C19.2168 26.671 17.0281 24.5229 17.0281 21.8811C17.0281 19.2392 19.2103 17.0911 21.8941 17.0911C24.5779 17.0911 26.7602 19.2392 26.7602 21.8811C26.7602 24.5229 24.5714 26.671 21.8941 26.671ZM31.4307 14.2119C31.4307 15.1674 30.6491 15.9304 29.685 15.9304C28.7144 15.9304 27.9392 15.161 27.9392 14.2119C27.9392 13.2629 28.7209 12.4934 29.685 12.4934C30.6491 12.4934 31.4307 13.2629 31.4307 14.2119ZM36.388 15.9561C36.2772 13.6541 35.7431 11.615 34.0299 9.93494C32.3232 8.25492 30.2517 7.72911 27.9131 7.61369C25.5029 7.47903 18.2788 7.47903 15.8686 7.61369C13.5366 7.7227 11.4651 8.24851 9.75189 9.92853C8.03869 11.6086 7.51105 13.6477 7.3938 15.9497C7.257 18.3222 7.257 25.4335 7.3938 27.806C7.50453 30.108 8.03869 32.1471 9.75189 33.8272C11.4651 35.5072 13.5301 36.033 15.8686 36.1484C18.2788 36.2831 25.5029 36.2831 27.9131 36.1484C30.2517 36.0394 32.3232 35.5136 34.0299 33.8272C35.7366 32.1471 36.2707 30.108 36.388 27.806C36.5248 25.4335 36.5248 18.3286 36.388 15.9561ZM33.2742 30.3517C32.7661 31.6085 31.7825 32.5768 30.4992 33.0833C28.5776 33.8336 24.0177 33.6604 21.8941 33.6604C19.7705 33.6604 15.2042 33.8272 13.289 33.0833C12.0123 32.5832 11.0287 31.6149 10.514 30.3517C9.75189 28.4601 9.92777 23.9715 9.92777 21.8811C9.92777 19.7906 9.75841 15.2956 10.514 13.4104C11.0221 12.1536 12.0058 11.1853 13.289 10.6788C15.2107 9.92853 19.7705 10.1017 21.8941 10.1017C24.0177 10.1017 28.5841 9.93494 30.4992 10.6788C31.776 11.1789 32.7596 12.1472 33.2742 13.4104C34.0364 15.302 33.8605 19.7906 33.8605 21.8811C33.8605 23.9715 34.0364 28.4665 33.2742 30.3517Z" fill="#F29C37"/>
</g>
<defs>
<clipPath id="clip0_791_24">
<rect width="29.1831" height="32.831" fill="white" transform="translate(7.29608 5.47168)"/>
</clipPath>
</defs>
</svg>
