<svg width="44" height="44" viewBox="0 0 44 44" fill="none" xmlns="http://www.w3.org/2000/svg">
<g clip-path="url(#clip0_791_25)">
<path d="M13.9217 34.6551V16.1959H7.66498V34.6551H13.9217ZM10.7941 13.6741C12.9759 13.6741 14.334 12.2566 14.334 10.4853C14.2934 8.67401 12.976 7.2959 10.8355 7.2959C8.69537 7.2959 7.29584 8.67403 7.29584 10.4853C7.29584 12.2567 8.65358 13.6741 10.7533 13.6741H10.7939H10.7941ZM17.3847 34.6551H23.6414V24.3466C23.6414 23.7949 23.682 23.2437 23.8473 22.8494C24.2996 21.7471 25.329 20.6054 27.0574 20.6054C29.3214 20.6054 30.2272 22.2982 30.2272 24.7797V34.6549H36.4835V24.0706C36.4835 18.4007 33.3967 15.7625 29.2802 15.7625C25.905 15.7625 24.423 17.6126 23.5998 18.8727H23.6415V16.1955H17.3848C17.467 17.9276 17.3848 34.6547 17.3848 34.6547L17.3847 34.6551Z" fill="#F29C37"/>
</g>
<defs>
<clipPath id="clip0_791_25">
<rect width="29.1831" height="27.3592" fill="white" transform="translate(7.29584 7.2959)"/>
</clipPath>
</defs>
</svg>
