<svg width="44" height="44" viewBox="0 0 44 44" fill="none" xmlns="http://www.w3.org/2000/svg">
<g clip-path="url(#clip0_791_26)">
<path d="M38.3022 12.2287C37.0728 12.7476 35.7688 13.0882 34.4336 13.2391C35.8244 12.445 36.8923 11.1874 37.3952 9.68901C36.073 10.4365 34.6265 10.9631 33.118 11.2462C31.8893 9.9991 30.1389 9.21973 28.2014 9.21973C24.4815 9.21973 21.4656 12.0929 21.4656 15.6365C21.4656 16.1395 21.5252 16.6292 21.64 17.099C16.0421 16.8313 11.0789 14.2767 7.75672 10.3943C7.17705 11.3421 6.8449 12.4445 6.8449 13.6203C6.8449 15.8467 8.03412 17.8107 9.84136 18.9615C8.77173 18.9296 7.72562 18.6543 6.79039 18.1588C6.79001 18.1856 6.79001 18.2125 6.79001 18.2395C6.79001 21.3486 9.11177 23.9422 12.193 24.5317C11.2011 24.7887 10.1607 24.8263 9.15127 24.6416C10.0083 27.191 12.4959 29.0462 15.4433 29.0981C13.1381 30.8191 10.2337 31.845 7.07805 31.845C6.53428 31.845 5.99822 31.8146 5.47125 31.7553C8.45207 33.576 11.9926 34.6384 15.7963 34.6384C28.1858 34.6384 34.9607 24.8603 34.9607 16.3807C34.9607 16.1024 34.9542 15.8256 34.9412 15.5505C36.2598 14.6423 37.398 13.5175 38.3022 12.2287Z" fill="#F29C37"/>
</g>
<defs>
<clipPath id="clip0_791_26">
<rect width="32.831" height="25.5352" fill="white" transform="translate(5.47144 9.11914)"/>
</clipPath>
</defs>
</svg>
